<?xml version="1.0" encoding="UTF-8" standalone="no"?>
<!-- Created with Inkscape (http://www.inkscape.org/) -->

<svg
   width="119.99999"
   height="44.985085"
   viewBox="0 0 31.75 11.902304"
   version="1.1"
   id="SVGRoot"
   sodipodi:docname="120.svg"
   inkscape:version="1.2 (dc2aedaf03, 2022-05-15)"
   xmlns:inkscape="http://www.inkscape.org/namespaces/inkscape"
   xmlns:sodipodi="http://sodipodi.sourceforge.net/DTD/sodipodi-0.dtd"
   xmlns="http://www.w3.org/2000/svg"
   xmlns:svg="http://www.w3.org/2000/svg">
  <sodipodi:namedview
     id="namedview691"
     pagecolor="#ffffff"
     bordercolor="#000000"
     borderopacity="0"
     inkscape:showpageshadow="2"
     inkscape:pageopacity="0"
     inkscape:pagecheckerboard="true"
     inkscape:deskcolor="#d1d1d1"
     inkscape:document-units="px"
     showgrid="false"
     inkscape:zoom="8"
     inkscape:cx="12.5"
     inkscape:cy="15.3125"
     inkscape:window-width="1008"
     inkscape:window-height="1008"
     inkscape:window-x="-7"
     inkscape:window-y="0"
     inkscape:window-maximized="0"
     inkscape:current-layer="layer1"
     showborder="true" />
  <defs
     id="defs686">
    <clipPath
       clipPathUnits="userSpaceOnUse"
       id="clipPath999">
      <path
         d="m 150.842,360.634 h 490.316 v 85.783 H 150.842 Z"
         id="path997" />
    </clipPath>
  </defs>
  <g
     inkscape:label="Layer 1"
     inkscape:groupmode="layer"
     id="layer1"
     transform="translate(-9.9021631e-4,-0.00208636)">
    <g
       id="g993"
       transform="matrix(0.13874996,0,0,-0.13874996,-20.928359,61.942344)">
      <g
         id="g995"
         clip-path="url(#clipPath999)">
        <g
           id="g1001"
           transform="translate(157.7842,407.6314)">
          <path
             d="m 0,0 c -5.565,4.991 -6.942,11.532 -6.942,16.983 0,3.844 1.319,10.556 6.425,15.662 3.443,3.443 8.664,6.14 17.499,6.14 2.295,0 5.508,-0.172 8.32,-0.689 2.18,-0.402 3.959,-0.574 6.081,-0.861 0.402,-0.057 0.517,-0.286 0.517,-0.631 0,-0.459 -0.173,-1.147 -0.287,-3.213 -0.115,-1.893 -0.115,-5.048 -0.172,-5.909 -0.058,-0.86 -0.172,-1.205 -0.517,-1.205 -0.401,0 -0.459,0.402 -0.459,1.205 0,2.237 -0.918,4.59 -2.41,5.852 -2.007,1.721 -6.425,3.27 -11.474,3.27 -7.631,0 -11.188,-2.237 -13.196,-4.188 -4.188,-4.016 -5.164,-9.122 -5.164,-14.974 0,-10.959 8.434,-20.999 20.712,-20.999 4.303,0 7.688,0.516 9.983,2.869 1.205,1.262 1.951,3.786 2.123,4.819 0.115,0.631 0.229,0.86 0.574,0.86 0.287,0 0.401,-0.401 0.401,-0.86 0,-0.402 -0.688,-5.393 -1.262,-7.344 -0.344,-1.09 -0.459,-1.205 -1.491,-1.664 C 26.965,-5.795 22.605,-6.196 18.933,-6.196 10.327,-6.196 4.532,-4.074 0,0"
             style="fill:#71675e;fill-opacity:1;fill-rule:nonzero;stroke:none"
             id="path1003" />
        </g>
        <g
           id="g1005"
           transform="translate(208.1013,418.7619)">
          <path
             d="m 0,0 c 0,-8.434 0.229,-12.106 1.262,-13.139 0.918,-0.917 2.41,-1.319 6.885,-1.319 3.041,0 5.565,0.057 6.942,1.721 0.746,0.918 1.32,2.352 1.492,3.442 0.057,0.459 0.172,0.746 0.516,0.746 0.287,0 0.345,-0.229 0.345,-0.86 0,-0.631 -0.402,-4.074 -0.861,-5.738 -0.402,-1.319 -0.574,-1.549 -3.615,-1.549 -4.934,0 -9.81,0.344 -15.376,0.344 -1.778,0 -3.5,-0.172 -5.622,-0.172 -0.631,0 -0.919,0.115 -0.919,0.459 0,0.173 0.115,0.345 0.46,0.345 0.516,0 1.204,0.114 1.721,0.229 1.147,0.229 1.434,1.492 1.664,3.156 0.287,2.409 0.287,6.942 0.287,12.45 v 10.098 c 0,8.95 0,10.556 -0.115,12.392 -0.115,1.951 -0.574,2.869 -2.467,3.27 -0.459,0.115 -1.435,0.173 -1.951,0.173 -0.229,0 -0.459,0.114 -0.459,0.344 0,0.344 0.287,0.459 0.918,0.459 2.582,0 6.196,-0.172 6.483,-0.172 0.287,0 4.475,0.172 6.197,0.172 0.631,0 0.918,-0.115 0.918,-0.459 0,-0.23 -0.23,-0.344 -0.459,-0.344 -0.402,0 -1.205,-0.058 -1.894,-0.173 C 0.689,25.589 0.229,24.613 0.115,22.605 0,20.769 0,19.163 0,10.213 Z"
             style="fill:#71675e;fill-opacity:1;fill-rule:nonzero;stroke:none"
             id="path1007" />
        </g>
        <g
           id="g1009"
           transform="translate(272.4714,403.0418)">
          <path
             d="m 0,0 c -0.458,0 -1.375,0.058 -2.237,0.344 -1.206,0.345 -2.867,1.262 -4.934,6.369 -3.498,8.719 -12.506,32.414 -13.368,34.595 -0.689,1.779 -0.916,2.065 -1.261,2.065 -0.345,0 -0.576,-0.342 -1.265,-2.237 L -36.088,5.507 C -37.121,2.64 -38.266,0.458 -40.905,0.114 -41.367,0.058 -41.881,0 -42.284,0 c -0.517,0 -0.803,-0.114 -0.803,-0.345 0,-0.344 0.345,-0.458 1.089,-0.458 2.698,0 5.855,0.172 6.486,0.172 0.631,0 2.926,-0.172 4.301,-0.172 0.517,0 1.033,0.114 1.033,0.458 0,0.231 -0.172,0.345 -0.744,0.345 h -0.517 c -0.975,0 -2.067,0.517 -2.067,1.664 0,1.031 0.289,2.409 0.803,3.843 l 3.442,10.155 c 0.004,0.007 0.007,0.014 0.011,0.021 l 1.96,5.786 4.111,12.609 c 0.287,0.862 0.576,0.862 0.862,0 l 4.694,-13.339 2.06,-5.68 5.066,-13.395 c 0.341,-0.92 0,-1.433 -0.344,-1.55 -0.231,-0.056 -0.404,-0.173 -0.404,-0.4 0,-0.345 0.631,-0.345 1.723,-0.403 3.957,-0.114 8.147,-0.114 9.005,-0.114 0.634,0 1.148,0.114 1.148,0.458 C 0.631,-0.059 0.344,0 0,0"
             style="fill:#71675e;fill-opacity:1;fill-rule:nonzero;stroke:none"
             id="path1011" />
        </g>
        <g
           id="g1013"
           transform="translate(279.3569,402.9843)">
          <path
             d="m 0,0 c -0.803,0.401 -0.861,0.631 -0.861,2.18 0,2.869 0.23,5.164 0.287,6.082 0.058,0.631 0.173,0.918 0.459,0.918 0.344,0 0.402,-0.172 0.402,-0.631 0,-0.517 0,-1.32 0.172,-2.123 C 1.32,2.18 5.106,0.574 8.951,0.574 c 5.507,0 8.204,3.958 8.204,7.63 0,3.959 -1.664,6.254 -6.598,10.328 l -2.582,2.122 c -6.082,4.992 -7.458,8.549 -7.458,12.45 0,6.139 4.589,10.328 11.876,10.328 2.237,0 3.901,-0.23 5.336,-0.574 1.09,-0.23 1.548,-0.287 2.008,-0.287 0.459,0 0.574,-0.114 0.574,-0.401 0,-0.287 -0.23,-2.181 -0.23,-6.082 0,-0.918 -0.115,-1.32 -0.402,-1.32 -0.344,0 -0.402,0.287 -0.459,0.746 -0.057,0.689 -0.401,2.238 -0.746,2.869 -0.344,0.631 -1.893,3.041 -7.171,3.041 -3.959,0 -7.057,-2.468 -7.057,-6.656 0,-3.27 1.492,-5.335 6.999,-9.639 l 1.607,-1.262 c 6.77,-5.335 8.376,-8.893 8.376,-13.483 0,-2.352 -0.917,-6.712 -4.876,-9.523 -2.468,-1.722 -5.566,-2.41 -8.664,-2.41 C 4.991,-1.549 2.352,-1.148 0,0"
             style="fill:#71675e;fill-opacity:1;fill-rule:nonzero;stroke:none"
             id="path1015" />
        </g>
        <g
           id="g1017"
           transform="translate(312.2323,402.9843)">
          <path
             d="m 0,0 c -0.803,0.401 -0.861,0.631 -0.861,2.18 0,2.869 0.23,5.164 0.287,6.082 0.058,0.631 0.172,0.918 0.459,0.918 0.344,0 0.402,-0.172 0.402,-0.631 0,-0.517 0,-1.32 0.172,-2.123 C 1.32,2.18 5.106,0.574 8.951,0.574 c 5.507,0 8.204,3.958 8.204,7.63 0,3.959 -1.664,6.254 -6.598,10.328 l -2.582,2.122 c -6.082,4.992 -7.458,8.549 -7.458,12.45 0,6.139 4.589,10.328 11.876,10.328 2.237,0 3.901,-0.23 5.336,-0.574 1.09,-0.23 1.548,-0.287 2.008,-0.287 0.459,0 0.573,-0.114 0.573,-0.401 0,-0.287 -0.229,-2.181 -0.229,-6.082 0,-0.918 -0.115,-1.32 -0.402,-1.32 -0.344,0 -0.402,0.287 -0.459,0.746 -0.057,0.689 -0.401,2.238 -0.746,2.869 -0.344,0.631 -1.893,3.041 -7.171,3.041 -3.959,0 -7.057,-2.468 -7.057,-6.656 0,-3.27 1.492,-5.335 6.999,-9.639 l 1.607,-1.262 c 6.77,-5.335 8.376,-8.893 8.376,-13.483 0,-2.352 -0.918,-6.712 -4.876,-9.523 -2.468,-1.722 -5.566,-2.41 -8.664,-2.41 C 4.991,-1.549 2.352,-1.148 0,0"
             style="fill:#71675e;fill-opacity:1;fill-rule:nonzero;stroke:none"
             id="path1019" />
        </g>
        <g
           id="g1021"
           transform="translate(356.1223,417.0981)">
          <path
             d="m 0,0 c 0,3.098 -0.574,4.361 -1.32,6.024 -0.401,0.918 -8.089,13.54 -10.097,16.524 -1.435,2.123 -2.869,3.557 -3.902,4.245 -0.861,0.574 -1.951,0.919 -2.467,0.919 -0.287,0 -0.574,0.114 -0.574,0.401 0,0.23 0.23,0.402 0.746,0.402 1.09,0 5.393,-0.172 5.68,-0.172 0.402,0 2.582,0.172 4.82,0.172 0.631,0 0.745,-0.172 0.745,-0.402 0,-0.229 -0.344,-0.287 -0.86,-0.516 -0.459,-0.23 -0.746,-0.574 -0.746,-1.033 0,-0.689 0.287,-1.377 0.746,-2.237 C -6.311,22.663 2.295,7.86 3.328,6.196 c 1.09,2.41 8.376,14.975 9.524,16.868 0.746,1.205 0.975,2.18 0.975,2.926 0,0.803 -0.229,1.435 -0.918,1.607 -0.516,0.172 -0.861,0.287 -0.861,0.574 0,0.229 0.345,0.344 0.918,0.344 1.492,0 3.328,-0.172 3.787,-0.172 0.344,0 4.475,0.172 5.565,0.172 0.402,0 0.746,-0.115 0.746,-0.345 0,-0.286 -0.287,-0.458 -0.746,-0.458 -0.631,0 -1.721,-0.23 -2.639,-0.804 C 18.532,26.22 17.9,25.531 16.638,23.982 14.745,21.687 6.713,8.204 5.68,5.737 4.819,3.672 4.819,1.893 4.819,0 v -4.934 c 0,-0.918 0,-3.328 0.172,-5.737 0.115,-1.664 0.632,-2.927 2.353,-3.156 0.803,-0.115 2.065,-0.229 2.582,-0.229 0.344,0 0.459,-0.173 0.459,-0.345 0,-0.287 -0.287,-0.459 -0.918,-0.459 -3.156,0 -6.77,0.172 -7.057,0.172 -0.287,0 -3.902,-0.172 -5.623,-0.172 -0.631,0 -0.918,0.115 -0.918,0.459 0,0.172 0.115,0.345 0.459,0.345 0.516,0 1.205,0.114 1.721,0.229 1.148,0.229 1.664,1.492 1.779,3.156 C 0,-8.262 0,-5.852 0,-4.934 Z"
             style="fill:#71675e;fill-opacity:1;fill-rule:nonzero;stroke:none"
             id="path1023" />
        </g>
        <g
           id="g1025"
           transform="translate(158.134,364.901)">
          <path
             d="m 0,0 c -3.823,3.429 -4.769,7.921 -4.769,11.665 0,2.641 0.907,7.252 4.414,10.76 2.365,2.364 5.951,4.216 12.02,4.216 1.577,0 3.784,-0.118 5.715,-0.473 1.498,-0.275 2.719,-0.394 4.177,-0.591 0.276,-0.039 0.355,-0.197 0.355,-0.433 0,-0.315 -0.118,-0.788 -0.197,-2.207 -0.079,-1.301 -0.079,-3.468 -0.118,-4.059 -0.04,-0.592 -0.118,-0.828 -0.355,-0.828 -0.276,0 -0.315,0.276 -0.315,0.828 0,1.536 -0.631,3.152 -1.655,4.02 -1.38,1.182 -4.414,2.246 -7.882,2.246 -5.242,0 -7.685,-1.537 -9.065,-2.877 -2.877,-2.759 -3.547,-6.266 -3.547,-10.286 0,-7.528 5.794,-14.424 14.227,-14.424 2.956,0 5.281,0.354 6.858,1.97 0.827,0.867 1.34,2.601 1.458,3.311 0.079,0.433 0.158,0.591 0.394,0.591 0.197,0 0.276,-0.276 0.276,-0.591 0,-0.276 -0.473,-3.705 -0.867,-5.045 C 20.887,-2.956 20.809,-3.035 20.099,-3.35 18.523,-3.98 15.528,-4.256 13.005,-4.256 7.094,-4.256 3.113,-2.798 0,0"
             style="fill:#721f34;fill-opacity:1;fill-rule:nonzero;stroke:none"
             id="path1027" />
        </g>
        <g
           id="g1029"
           transform="translate(198.8063,372.5466)">
          <path
             d="m 0,0 c 0,-5.793 0.158,-8.316 0.867,-9.025 0.631,-0.631 1.655,-0.906 4.729,-0.906 2.089,0 3.823,0.039 4.769,1.182 0.512,0.63 0.906,1.616 1.025,2.364 0.039,0.316 0.118,0.513 0.354,0.513 0.197,0 0.237,-0.158 0.237,-0.591 0,-0.434 -0.276,-2.798 -0.591,-3.941 -0.276,-0.907 -0.395,-1.065 -2.483,-1.065 -3.39,0 -6.739,0.237 -10.562,0.237 -1.222,0 -2.404,-0.118 -3.863,-0.118 -0.433,0 -0.63,0.079 -0.63,0.315 0,0.118 0.079,0.236 0.315,0.236 0.355,0 0.828,0.079 1.182,0.158 0.789,0.158 0.986,1.025 1.143,2.168 0.198,1.655 0.198,4.768 0.198,8.552 v 6.936 c 0,6.148 0,7.251 -0.079,8.513 -0.079,1.34 -0.394,1.97 -1.695,2.246 -0.315,0.079 -0.985,0.118 -1.34,0.118 -0.158,0 -0.315,0.079 -0.315,0.237 0,0.236 0.197,0.315 0.63,0.315 1.774,0 4.257,-0.118 4.454,-0.118 0.197,0 3.074,0.118 4.256,0.118 0.434,0 0.631,-0.079 0.631,-0.315 0,-0.158 -0.158,-0.237 -0.316,-0.237 -0.276,0 -0.827,-0.039 -1.3,-0.118 C 0.473,17.577 0.158,16.907 0.079,15.528 0,14.266 0,13.163 0,7.015 Z"
             style="fill:#721f34;fill-opacity:1;fill-rule:nonzero;stroke:none"
             id="path1031" />
        </g>
        <g
           id="g1033"
           transform="translate(247.9913,375.66)">
          <path
             d="m 0,0 c 0,9.458 -5.754,14.542 -11.981,14.542 -6.581,0 -11.508,-4.335 -11.508,-12.966 0,-9.182 5.518,-15.094 12.612,-15.094 C -7.331,-13.518 0,-11.469 0,0 m -27.233,0.473 c 0,6.384 4.651,15.409 15.528,15.409 8.867,0 15.488,-5.596 15.488,-14.779 0,-8.827 -6.227,-16.118 -15.724,-16.118 -10.799,0 -15.292,8.394 -15.292,15.488"
             style="fill:#721f34;fill-opacity:1;fill-rule:nonzero;stroke:none"
             id="path1035" />
        </g>
        <g
           id="g1037"
           transform="translate(265.49,361.7088)">
          <path
             d="m 0,0 c -0.552,0.276 -0.591,0.433 -0.591,1.497 0,1.971 0.157,3.547 0.197,4.178 0.039,0.433 0.118,0.631 0.315,0.631 0.237,0 0.276,-0.119 0.276,-0.434 0,-0.355 0,-0.906 0.118,-1.458 0.591,-2.917 3.193,-4.02 5.833,-4.02 3.783,0 5.636,2.719 5.636,5.242 0,2.719 -1.143,4.295 -4.533,7.093 L 5.478,14.188 C 1.3,17.616 0.355,20.06 0.355,22.74 c 0,4.217 3.153,7.094 8.158,7.094 1.536,0 2.679,-0.158 3.665,-0.394 0.749,-0.158 1.064,-0.198 1.379,-0.198 0.315,0 0.394,-0.078 0.394,-0.275 0,-0.197 -0.157,-1.498 -0.157,-4.178 0,-0.63 -0.079,-0.906 -0.276,-0.906 -0.237,0 -0.276,0.197 -0.316,0.512 -0.039,0.473 -0.275,1.537 -0.512,1.97 -0.236,0.434 -1.301,2.089 -4.926,2.089 -2.719,0 -4.848,-1.695 -4.848,-4.571 0,-2.247 1.025,-3.666 4.808,-6.621 l 1.104,-0.867 c 4.65,-3.666 5.754,-6.109 5.754,-9.262 0,-1.616 -0.631,-4.611 -3.35,-6.542 C 9.537,-0.591 7.409,-1.064 5.281,-1.064 3.429,-1.064 1.616,-0.788 0,0"
             style="fill:#721f34;fill-opacity:1;fill-rule:nonzero;stroke:none"
             id="path1039" />
        </g>
        <g
           id="g1041"
           transform="translate(296.5065,379.5616)">
          <path
             d="m 0,0 c 0,6.148 0,7.251 -0.079,8.513 -0.079,1.34 -0.394,1.97 -1.694,2.246 -0.276,0.079 -0.789,0.079 -1.143,0.118 -0.276,0.04 -0.513,0.079 -0.513,0.237 0,0.236 0.197,0.315 0.631,0.315 0.906,0 1.97,0 4.453,-0.118 0.276,0 8.119,0 9.025,0.039 0.867,0.04 1.577,0.118 1.813,0.237 0.236,0.118 0.315,0.157 0.434,0.157 0.118,0 0.157,-0.157 0.157,-0.354 0,-0.276 -0.236,-0.749 -0.315,-1.853 C 12.729,8.946 12.69,8.197 12.611,7.173 12.572,6.779 12.454,6.503 12.296,6.503 12.059,6.503 11.981,6.7 11.981,7.015 11.981,7.527 11.902,8 11.784,8.316 11.508,9.222 10.68,9.616 8.946,9.774 8.276,9.853 3.98,9.892 3.547,9.892 3.389,9.892 3.31,9.774 3.31,9.498 V -1.379 c 0,-0.276 0.04,-0.394 0.237,-0.394 0.512,0 5.36,0 6.266,0.078 1.064,0.079 1.576,0.197 1.971,0.67 0.197,0.237 0.315,0.394 0.473,0.394 0.118,0 0.197,-0.078 0.197,-0.315 0,-0.236 -0.197,-0.906 -0.316,-2.207 -0.118,-1.222 -0.118,-2.128 -0.157,-2.68 -0.04,-0.394 -0.118,-0.591 -0.276,-0.591 -0.237,0 -0.276,0.315 -0.276,0.631 0,0.354 -0.04,0.748 -0.158,1.103 -0.157,0.591 -0.63,1.143 -2.049,1.301 -1.064,0.118 -4.966,0.197 -5.636,0.197 -0.197,0 -0.276,-0.118 -0.276,-0.276 v -3.468 c 0,-1.34 -0.039,-5.912 0,-6.739 0.079,-1.616 0.316,-2.483 1.301,-2.877 0.67,-0.276 1.734,-0.355 3.271,-0.355 1.182,0 2.483,0.039 3.547,0.355 1.261,0.394 1.695,1.221 2.01,2.916 0.079,0.433 0.158,0.591 0.355,0.591 0.236,0 0.236,-0.315 0.236,-0.591 0,-0.315 -0.315,-2.995 -0.512,-3.823 -0.276,-1.025 -0.591,-1.025 -2.129,-1.025 -2.916,0 -4.217,0.079 -5.754,0.119 -1.576,0.039 -3.389,0.118 -4.926,0.118 -0.946,0 -1.891,-0.158 -2.916,-0.118 -0.434,0 -0.631,0.079 -0.631,0.315 0,0.118 0.197,0.197 0.434,0.236 0.394,0.04 0.631,0.04 0.906,0.119 0.828,0.197 1.34,0.748 1.419,3.704 C -0.04,-12.454 0,-10.444 0,-6.936 Z"
             style="fill:#721f34;fill-opacity:1;fill-rule:nonzero;stroke:none"
             id="path1043" />
        </g>
        <g
           id="g1045"
           transform="translate(335.6409,372.6254)">
          <path
             d="m 0,0 c 0,-3.783 0,-6.897 0.197,-8.552 0.118,-1.143 0.355,-2.01 1.537,-2.168 0.552,-0.079 1.419,-0.157 1.774,-0.157 0.236,0 0.315,-0.119 0.315,-0.237 0,-0.197 -0.197,-0.315 -0.631,-0.315 -2.168,0 -4.65,0.118 -4.847,0.118 -0.197,0 -2.68,-0.118 -3.862,-0.118 -0.434,0 -0.631,0.079 -0.631,0.315 0,0.118 0.079,0.237 0.315,0.237 0.355,0 0.828,0.078 1.182,0.157 0.789,0.158 0.986,1.025 1.143,2.168 0.197,1.655 0.197,4.769 0.197,8.552 v 16.671 c -1.931,-0.04 -3.901,-0.04 -5.832,-0.079 -2.444,-0.04 -3.39,-0.315 -4.02,-1.261 -0.434,-0.67 -0.552,-0.946 -0.67,-1.222 -0.118,-0.315 -0.237,-0.394 -0.394,-0.394 -0.119,0 -0.197,0.118 -0.197,0.355 0,0.394 0.788,3.783 0.867,4.098 0.078,0.237 0.236,0.749 0.394,0.749 0.276,0 0.67,-0.394 1.734,-0.473 1.143,-0.118 2.64,-0.197 3.113,-0.197 H 6.463 c 1.261,0 2.168,0.079 2.798,0.197 0.592,0.079 0.946,0.197 1.104,0.197 0.197,0 0.197,-0.236 0.197,-0.473 0,-1.182 -0.118,-3.902 -0.118,-4.335 0,-0.355 -0.118,-0.512 -0.276,-0.512 -0.197,0 -0.276,0.118 -0.315,0.67 0,0.157 -0.04,0.275 -0.04,0.433 C 9.695,15.607 8.749,16.513 4.965,16.592 3.31,16.631 1.655,16.631 0,16.671 Z"
             style="fill:#721f34;fill-opacity:1;fill-rule:nonzero;stroke:none"
             id="path1047" />
        </g>
        <g
           id="g1049"
           transform="translate(358.3029,361.7088)">
          <path
             d="m 0,0 c -0.552,0.276 -0.591,0.433 -0.591,1.497 0,1.971 0.157,3.547 0.197,4.178 0.039,0.433 0.118,0.631 0.315,0.631 0.237,0 0.276,-0.119 0.276,-0.434 0,-0.355 0,-0.906 0.118,-1.458 0.591,-2.917 3.193,-4.02 5.833,-4.02 3.783,0 5.636,2.719 5.636,5.242 0,2.719 -1.143,4.295 -4.533,7.093 L 5.478,14.188 C 1.3,17.616 0.354,20.06 0.354,22.74 c 0,4.217 3.154,7.094 8.159,7.094 1.536,0 2.679,-0.158 3.665,-0.394 0.749,-0.158 1.064,-0.198 1.379,-0.198 0.315,0 0.394,-0.078 0.394,-0.275 0,-0.197 -0.157,-1.498 -0.157,-4.178 0,-0.63 -0.079,-0.906 -0.276,-0.906 -0.237,0 -0.276,0.197 -0.316,0.512 -0.039,0.473 -0.275,1.537 -0.512,1.97 -0.236,0.434 -1.301,2.089 -4.926,2.089 -2.72,0 -4.848,-1.695 -4.848,-4.571 0,-2.247 1.025,-3.666 4.808,-6.621 l 1.104,-0.867 c 4.65,-3.666 5.754,-6.109 5.754,-9.262 0,-1.616 -0.631,-4.611 -3.35,-6.542 C 9.537,-0.591 7.409,-1.064 5.281,-1.064 3.429,-1.064 1.616,-0.788 0,0"
             style="fill:#721f34;fill-opacity:1;fill-rule:nonzero;stroke:none"
             id="path1051" />
        </g>
        <g
           id="g1053"
           transform="translate(377.0151,363.0035)">
          <path
             d="m 0,0 c 0.052,-0.026 0.182,-0.052 0.312,-0.052 0.13,0 0.209,0.026 0.287,0.078 0.104,0.078 0.156,0.208 0.156,0.365 0,0.338 -0.182,0.599 -0.547,0.599 -0.026,0 -0.156,0 -0.208,-0.053 z m -0.443,0.755 c 0,0.26 -0.078,0.287 -0.286,0.313 -0.078,0 -0.104,0.052 -0.104,0.078 0,0.052 0.078,0.052 0.13,0.052 0.182,0 0.365,-0.026 0.442,-0.026 0.235,0 0.339,0.026 0.521,0.026 0.391,0 0.964,-0.104 0.964,-0.677 0,-0.235 -0.156,-0.495 -0.443,-0.625 l 0.313,-0.443 c 0.286,-0.416 0.495,-0.495 0.546,-0.521 0.079,-0.026 0.105,-0.026 0.105,-0.078 0,-0.026 -0.026,-0.052 -0.156,-0.052 -0.287,0 -0.547,-0.026 -0.886,0.443 L 0.364,-0.26 H 0 v -0.391 c 0,-0.365 0.026,-0.391 0.286,-0.417 0.078,0 0.131,-0.026 0.131,-0.078 0,-0.026 -0.026,-0.052 -0.131,-0.052 -0.156,0 -0.364,0.026 -0.494,0.026 -0.078,0 -0.339,-0.026 -0.521,-0.026 -0.026,0 -0.104,0 -0.104,0.052 0,0.052 0.078,0.078 0.13,0.078 0.208,0.026 0.26,0.052 0.26,0.339 z m 2.735,-0.833 c 0,1.146 -0.834,1.953 -1.928,1.953 -1.093,0 -1.926,-0.807 -1.926,-1.953 0,-1.12 0.833,-1.979 1.953,-1.979 1.067,0 1.901,0.755 1.901,1.979 m -4.219,-0.026 c 0,1.328 0.99,2.292 2.291,2.292 1.303,0 2.292,-0.964 2.292,-2.292 0,-1.276 -0.989,-2.266 -2.292,-2.266 -1.301,0 -2.291,0.99 -2.291,2.266"
             style="fill:#721f34;fill-opacity:1;fill-rule:nonzero;stroke:none"
             id="path1055" />
        </g>
        <g
           id="g1057"
           transform="translate(253.724,410.3359)">
          <path
             d="m 0,0 c 1.763,-0.538 3.943,1.833 3.496,3.226 -0.311,0.969 -8.313,8.812 -18.494,9.129 -11.605,0.361 -17.409,-10.952 -16.304,-11.12 1.85,-0.28 2.334,7.496 9.798,8.441 C -12.899,10.765 -3.216,0.981 0,0"
             style="fill:#721f34;fill-opacity:1;fill-rule:nonzero;stroke:none"
             id="path1059" />
        </g>
      </g>
    </g>
  </g>
</svg>
