<?xml version="1.0" encoding="UTF-8" standalone="no"?>
<!-- Created with Inkscape (http://www.inkscape.org/) -->

<svg
   width="64"
   height="11.197016"
   viewBox="0 0 16.933335 2.9625439"
   version="1.1"
   id="SVGRoot"
   sodipodi:docname="extended 64.svg"
   inkscape:version="1.2 (dc2aedaf03, 2022-05-15)"
   xmlns:inkscape="http://www.inkscape.org/namespaces/inkscape"
   xmlns:sodipodi="http://sodipodi.sourceforge.net/DTD/sodipodi-0.dtd"
   xmlns="http://www.w3.org/2000/svg"
   xmlns:svg="http://www.w3.org/2000/svg">
  <sodipodi:namedview
     id="namedview691"
     pagecolor="#ffffff"
     bordercolor="#000000"
     borderopacity="0"
     inkscape:showpageshadow="2"
     inkscape:pageopacity="0"
     inkscape:pagecheckerboard="true"
     inkscape:deskcolor="#d1d1d1"
     inkscape:document-units="px"
     showgrid="false"
     inkscape:zoom="2.8284271"
     inkscape:cx="76.013979"
     inkscape:cy="83.615377"
     inkscape:window-width="1008"
     inkscape:window-height="1008"
     inkscape:window-x="-7"
     inkscape:window-y="0"
     inkscape:window-maximized="0"
     inkscape:current-layer="layer1"
     showborder="true" />
  <defs
     id="defs686">
    <clipPath
       clipPathUnits="userSpaceOnUse"
       id="clipPath999">
      <path
         d="m 150.842,360.634 h 490.316 v 85.783 H 150.842 Z"
         id="path997" />
    </clipPath>
    <clipPath
       clipPathUnits="userSpaceOnUse"
       id="clipPath935">
      <path
         d="m 150.842,360.634 h 490.316 v 85.783 H 150.842 Z"
         id="path933" />
    </clipPath>
    <clipPath
       clipPathUnits="userSpaceOnUse"
       id="clipPath999-0">
      <path
         d="m 150.842,360.634 h 490.316 v 85.783 H 150.842 Z"
         id="path997-9" />
    </clipPath>
    <clipPath
       clipPathUnits="userSpaceOnUse"
       id="clipPath999-4">
      <path
         d="m 150.842,360.634 h 490.316 v 85.783 H 150.842 Z"
         id="path997-8" />
    </clipPath>
    <clipPath
       clipPathUnits="userSpaceOnUse"
       id="clipPath935-2">
      <path
         d="m 150.842,360.634 h 490.316 v 85.783 H 150.842 Z"
         id="path933-1" />
    </clipPath>
    <clipPath
       clipPathUnits="userSpaceOnUse"
       id="clipPath999-5">
      <path
         d="m 150.842,360.634 h 490.316 v 85.783 H 150.842 Z"
         id="path997-2" />
    </clipPath>
  </defs>
  <g
     inkscape:label="Layer 1"
     inkscape:groupmode="layer"
     id="layer1"
     transform="translate(81.492822,25.197874)">
    <g
       id="g921"
       transform="matrix(0.03453557,0,0,-0.03453557,-71.975401,-24.170059)">
      <path
         d="m 0,0 h 2.888 l -4.3,-20.218 h 11.97 l -0.545,-2.568 H -4.846 Z"
         style="fill:#71675e;fill-opacity:1;fill-rule:nonzero;stroke:none"
         id="path923" />
    </g>
    <g
       id="g925"
       transform="matrix(0.03453557,0,0,-0.03453557,-71.368044,-24.192224)">
      <path
         d="M 0,0 H 2.824 L 2.086,-3.53 H -0.738 Z M -1.412,-6.675 H 1.412 L -2.15,-23.428 h -2.824 z"
         style="fill:#71675e;fill-opacity:1;fill-rule:nonzero;stroke:none"
         id="path927" />
    </g>
    <g
       id="g929"
       transform="matrix(0.03453557,0,0,-0.03453557,-86.702243,-9.7806292)">
      <g
         id="g931"
         clip-path="url(#clipPath935-2)">
        <g
           id="g937"
           transform="translate(450.1736,408.4075)">
          <path
             d="m 0,0 h -2.15 l 0.481,2.214 h 2.15 L 0.546,2.567 C 0.952,4.642 1.733,6.269 2.888,7.445 4.044,8.622 5.381,9.21 6.9,9.21 7.52,9.21 8.119,9.119 8.697,8.938 9.275,8.756 9.788,8.505 10.238,8.184 L 9.082,6.098 C 8.846,6.311 8.531,6.483 8.135,6.611 7.739,6.739 7.349,6.804 6.964,6.804 6.087,6.804 5.348,6.451 4.75,5.745 4.15,5.039 3.701,4.012 3.402,2.664 L 3.305,2.214 H 7.51 L 7.028,0 H 2.824 l -4.525,-21.342 h -2.824 z"
             style="fill:#71675e;fill-opacity:1;fill-rule:nonzero;stroke:none"
             id="path939" />
        </g>
        <g
           id="g941"
           transform="translate(467.2474,408.7927)">
          <path
             d="m 0,0 c -0.92,0 -1.749,-0.155 -2.487,-0.465 -0.739,-0.311 -1.38,-0.722 -1.926,-1.236 -0.545,-0.514 -1.006,-1.097 -1.38,-1.749 -0.374,-0.653 -0.669,-1.321 -0.882,-2.006 0.642,-0.064 1.246,-0.107 1.813,-0.128 0.567,-0.022 1.096,-0.032 1.589,-0.032 1.219,0 2.24,0.08 3.064,0.241 0.824,0.16 1.493,0.384 2.006,0.673 0.514,0.289 0.883,0.631 1.107,1.027 0.225,0.396 0.337,0.829 0.337,1.3 0,0.813 -0.294,1.412 -0.882,1.797 C 1.77,-0.193 0.984,0 0,0 m -3.37,-15.244 c -1.048,0 -1.979,0.182 -2.792,0.546 -0.813,0.363 -1.503,0.866 -2.07,1.508 -0.567,0.642 -0.995,1.39 -1.283,2.246 -0.289,0.856 -0.434,1.776 -0.434,2.76 0,1.348 0.257,2.642 0.77,3.884 0.514,1.24 1.231,2.337 2.151,3.289 0.919,0.952 2,1.712 3.241,2.279 1.241,0.566 2.589,0.85 4.044,0.85 1.647,0 2.979,-0.38 3.995,-1.139 1.016,-0.76 1.525,-1.889 1.525,-3.386 0,-1.712 -0.744,-3.001 -2.231,-3.867 -1.487,-0.867 -3.792,-1.3 -6.916,-1.3 -0.513,0 -1.086,0.011 -1.717,0.032 -0.631,0.021 -1.289,0.064 -1.973,0.128 -0.022,-0.128 -0.033,-0.256 -0.033,-0.384 v -0.354 c 0,-0.663 0.086,-1.294 0.257,-1.893 0.171,-0.599 0.428,-1.129 0.77,-1.589 0.343,-0.46 0.776,-0.823 1.3,-1.091 0.524,-0.268 1.139,-0.401 1.846,-0.401 0.984,0 1.946,0.251 2.888,0.754 0.941,0.503 1.679,1.182 2.214,2.038 l 2.279,-0.674 c -0.385,-0.621 -0.867,-1.187 -1.444,-1.701 -0.578,-0.513 -1.209,-0.958 -1.894,-1.332 -0.685,-0.374 -1.407,-0.668 -2.166,-0.882 -0.76,-0.214 -1.536,-0.321 -2.327,-0.321"
             style="fill:#71675e;fill-opacity:1;fill-rule:nonzero;stroke:none"
             id="path943" />
        </g>
        <g
           id="g945"
           transform="translate(472.0973,393.8696)">
          <path
             d="m 0,0 0.454,2.118 h 1.4 L 1.4,0 Z"
             style="fill:#71675e;fill-opacity:1;fill-rule:nonzero;stroke:none"
             id="path947" />
        </g>
        <g
           id="g949"
           transform="translate(483.7519,405.2624)">
          <path
             d="m 0,0 c 0,-1.155 0.187,-2.273 0.562,-3.354 0.374,-1.08 0.903,-2.038 1.588,-2.872 0.685,-0.834 1.509,-1.498 2.471,-1.99 0.963,-0.492 2.033,-0.738 3.21,-0.738 1.219,0 2.31,0.262 3.273,0.786 0.963,0.524 1.781,1.209 2.455,2.054 0.674,0.845 1.188,1.803 1.541,2.873 0.353,1.069 0.529,2.15 0.529,3.241 0,1.155 -0.187,2.273 -0.561,3.354 -0.375,1.08 -0.91,2.032 -1.605,2.856 -0.696,0.823 -1.52,1.481 -2.471,1.974 C 10.04,8.676 8.986,8.922 7.831,8.922 6.611,8.922 5.52,8.665 4.557,8.152 3.595,7.638 2.776,6.964 2.102,6.13 1.428,5.295 0.909,4.343 0.546,3.273 0.182,2.203 0,1.112 0,0 m 7.798,-11.553 c -1.604,0 -3.064,0.326 -4.38,0.979 -1.316,0.652 -2.445,1.518 -3.386,2.599 -0.941,1.08 -1.669,2.316 -2.182,3.707 -0.514,1.39 -0.77,2.813 -0.77,4.268 0,1.519 0.273,2.974 0.818,4.365 0.546,1.39 1.3,2.62 2.262,3.69 0.963,1.07 2.103,1.92 3.418,2.552 1.316,0.631 2.744,0.946 4.285,0.946 1.604,0 3.059,-0.336 4.364,-1.01 1.305,-0.674 2.428,-1.557 3.37,-2.648 0.941,-1.091 1.669,-2.327 2.183,-3.707 0.513,-1.38 0.769,-2.787 0.769,-4.22 0,-1.519 -0.272,-2.974 -0.818,-4.365 -0.545,-1.391 -1.295,-2.615 -2.246,-3.674 -0.953,-1.059 -2.086,-1.905 -3.402,-2.536 -1.316,-0.631 -2.744,-0.946 -4.285,-0.946"
             style="fill:#71675e;fill-opacity:1;fill-rule:nonzero;stroke:none"
             id="path951" />
        </g>
        <g
           id="g953"
           transform="translate(514.5609,408.1508)">
          <path
             d="m 0,0 c -1.412,-0.043 -2.659,-0.407 -3.739,-1.091 -1.08,-0.685 -1.845,-1.637 -2.294,-2.856 V -14.281 H -8.857 V 2.471 h 2.631 v -3.883 c 0.578,1.155 1.337,2.091 2.279,2.808 0.941,0.716 1.946,1.118 3.016,1.203 h 0.546 c 0.149,0 0.278,-0.01 0.385,-0.032 z"
             style="fill:#71675e;fill-opacity:1;fill-rule:nonzero;stroke:none"
             id="path955" />
        </g>
        <g
           id="g957"
           transform="translate(524.6062,395.9877)">
          <path
             d="m 0,0 c 0.599,0 1.176,0.107 1.733,0.321 0.556,0.213 1.07,0.497 1.54,0.85 0.471,0.353 0.867,0.755 1.188,1.204 0.321,0.449 0.534,0.909 0.642,1.38 V 8.569 C 4.867,9.146 4.562,9.67 4.188,10.141 3.814,10.612 3.391,11.024 2.92,11.377 2.449,11.73 1.942,12.003 1.396,12.195 c -0.546,0.193 -1.097,0.289 -1.653,0.289 -0.856,0 -1.621,-0.182 -2.294,-0.545 C -3.226,11.574 -3.798,11.093 -4.268,10.494 -4.739,9.895 -5.103,9.216 -5.36,8.456 -5.616,7.697 -5.745,6.932 -5.745,6.162 c 0,-0.835 0.15,-1.627 0.45,-2.375 0.299,-0.749 0.706,-1.402 1.219,-1.958 0.514,-0.557 1.118,-1 1.813,-1.332 C -1.568,0.165 -0.813,0 0,0 m -0.867,-2.311 c -1.134,0 -2.177,0.235 -3.128,0.706 -0.953,0.471 -1.771,1.102 -2.456,1.894 -0.685,0.791 -1.214,1.701 -1.588,2.728 -0.375,1.027 -0.562,2.096 -0.562,3.209 0,1.176 0.187,2.294 0.562,3.354 0.374,1.059 0.903,1.984 1.588,2.776 0.685,0.791 1.503,1.417 2.456,1.877 0.951,0.46 2.005,0.69 3.161,0.69 1.412,0 2.631,-0.343 3.658,-1.027 1.027,-0.685 1.894,-1.551 2.599,-2.6 v 3.338 H 7.927 V -1.926 C 7.927,-3.124 7.702,-4.177 7.253,-5.087 6.804,-5.996 6.194,-6.76 5.423,-7.381 4.653,-8.002 3.749,-8.472 2.712,-8.793 1.674,-9.114 0.567,-9.275 -0.61,-9.275 c -1.904,0 -3.45,0.327 -4.637,0.979 -1.188,0.653 -2.177,1.556 -2.969,2.712 l 1.637,1.444 c 0.663,-0.984 1.519,-1.722 2.567,-2.214 1.048,-0.492 2.183,-0.739 3.402,-0.739 0.77,0 1.503,0.108 2.199,0.321 0.695,0.215 1.299,0.535 1.813,0.963 0.513,0.428 0.925,0.963 1.235,1.605 0.31,0.642 0.466,1.401 0.466,2.278 V 1.027 C 4.782,0.513 4.402,0.048 3.964,-0.369 3.525,-0.786 3.049,-1.139 2.535,-1.428 2.022,-1.717 1.476,-1.937 0.898,-2.086 0.321,-2.236 -0.268,-2.311 -0.867,-2.311"
             style="fill:#71675e;fill-opacity:1;fill-rule:nonzero;stroke:none"
             id="path959" />
        </g>
        <g
           id="g961"
           transform="translate(542.1283,395.6667)">
          <path
             d="M 0,0 C 1.005,0 1.942,0.187 2.808,0.562 3.674,0.936 4.333,1.433 4.782,2.054 5.188,2.46 5.391,2.877 5.391,3.306 V 5.777 C 4.022,6.311 2.599,6.579 1.123,6.579 c -1.412,0 -2.562,-0.3 -3.45,-0.899 -0.888,-0.599 -1.332,-1.379 -1.332,-2.342 0,-0.471 0.091,-0.91 0.273,-1.316 0.182,-0.407 0.438,-0.76 0.771,-1.059 0.331,-0.3 0.722,-0.535 1.171,-0.706 C -0.995,0.085 -0.514,0 0,0 m -0.738,-2.118 c -0.792,0 -1.53,0.134 -2.215,0.401 -0.685,0.267 -1.278,0.636 -1.781,1.107 -0.503,0.471 -0.898,1.022 -1.187,1.653 -0.289,0.631 -0.433,1.321 -0.433,2.07 0,0.77 0.171,1.471 0.513,2.102 0.342,0.631 0.829,1.171 1.46,1.621 0.631,0.449 1.38,0.802 2.247,1.059 0.866,0.257 1.813,0.385 2.84,0.385 0.813,0 1.637,-0.075 2.471,-0.225 C 4.012,7.905 4.75,7.702 5.391,7.446 v 1.347 c 0,1.369 -0.385,2.445 -1.155,3.226 -0.77,0.78 -1.861,1.171 -3.273,1.171 -1.691,0 -3.466,-0.653 -5.328,-1.958 l -0.93,1.83 c 2.16,1.455 4.332,2.182 6.514,2.182 2.204,0 3.921,-0.589 5.151,-1.765 C 7.6,12.302 8.216,10.644 8.216,8.505 V 1.669 c 0,-0.664 0.299,-1.006 0.899,-1.027 V -1.797 C 8.815,-1.84 8.569,-1.872 8.376,-1.893 8.184,-1.915 7.98,-1.926 7.766,-1.926 c -0.556,0 -1,0.166 -1.331,0.498 -0.332,0.331 -0.53,0.733 -0.594,1.203 L 5.777,0.963 C 5.027,-0.043 4.081,-0.808 2.936,-1.332 1.792,-1.856 0.567,-2.118 -0.738,-2.118"
             style="fill:#71675e;fill-opacity:1;fill-rule:nonzero;stroke:none"
             id="path963" />
        </g>
        <g
           id="g965"
           transform="translate(569.4068,393.8696)">
          <path
             d="m 0,0 h -2.824 v 9.371 c 0,1.797 -0.273,3.102 -0.819,3.915 -0.545,0.813 -1.375,1.22 -2.487,1.22 -0.577,0 -1.155,-0.112 -1.733,-0.337 -0.577,-0.225 -1.123,-0.53 -1.636,-0.915 -0.514,-0.385 -0.963,-0.845 -1.348,-1.38 -0.385,-0.535 -0.674,-1.123 -0.867,-1.765 V 0 h -2.824 v 16.752 h 2.568 v -3.594 c 0.662,1.176 1.62,2.118 2.872,2.824 1.251,0.706 2.615,1.059 4.092,1.059 0.962,0 1.765,-0.176 2.406,-0.529 0.642,-0.353 1.156,-0.846 1.541,-1.477 0.385,-0.631 0.658,-1.375 0.818,-2.23 C -0.08,11.949 0,11.018 0,10.013 Z"
             style="fill:#71675e;fill-opacity:1;fill-rule:nonzero;stroke:none"
             id="path967" />
        </g>
        <path
           d="m 573.803,410.622 h 2.824 V 393.87 h -2.824 z m 0,6.675 h 2.824 v -3.53 h -2.824 z"
           style="fill:#71675e;fill-opacity:1;fill-rule:nonzero;stroke:none"
           id="path969" />
        <g
           id="g971"
           transform="translate(579.8685,395.6989)">
          <path
             d="M 0,0 10.719,12.869 H 0.289 v 2.054 H 13.736 V 13.094 L 3.081,0.224 H 13.768 V -1.829 H 0 Z"
             style="fill:#71675e;fill-opacity:1;fill-rule:nonzero;stroke:none"
             id="path973" />
        </g>
        <g
           id="g975"
           transform="translate(609.8433,403.3689)">
          <path
             d="M 0,0 C -0.064,0.791 -0.262,1.524 -0.594,2.198 -0.926,2.872 -1.343,3.445 -1.845,3.915 -2.348,4.386 -2.931,4.755 -3.594,5.022 -4.258,5.29 -4.964,5.424 -5.713,5.424 -6.462,5.424 -7.168,5.29 -7.831,5.022 -8.494,4.755 -9.077,4.381 -9.58,3.899 -10.083,3.418 -10.489,2.845 -10.799,2.182 -11.109,1.519 -11.297,0.791 -11.361,0 Z m -5.745,-9.82 c -1.262,0 -2.417,0.23 -3.466,0.69 -1.048,0.46 -1.947,1.085 -2.695,1.877 -0.75,0.791 -1.332,1.717 -1.749,2.776 -0.418,1.059 -0.626,2.177 -0.626,3.354 0,1.176 0.208,2.289 0.626,3.338 0.417,1.048 1.005,1.968 1.765,2.759 0.759,0.792 1.663,1.417 2.712,1.878 1.048,0.46 2.203,0.69 3.465,0.69 1.263,0 2.412,-0.236 3.45,-0.706 C -1.225,6.365 -0.343,5.739 0.385,4.958 1.112,4.177 1.674,3.268 2.07,2.231 2.466,1.193 2.664,0.117 2.664,-0.995 2.664,-1.231 2.658,-1.444 2.648,-1.637 2.636,-1.829 2.621,-1.979 2.599,-2.086 h -13.896 c 0.065,-0.834 0.257,-1.594 0.578,-2.279 0.321,-0.684 0.738,-1.273 1.252,-1.765 0.513,-0.492 1.096,-0.877 1.749,-1.155 0.652,-0.278 1.342,-0.417 2.07,-0.417 0.513,0 1.016,0.069 1.508,0.208 0.492,0.139 0.952,0.326 1.38,0.562 0.428,0.235 0.807,0.524 1.139,0.867 0.332,0.342 0.583,0.727 0.754,1.155 l 2.44,-0.674 C 1.294,-6.205 0.915,-6.771 0.433,-7.285 -0.048,-7.798 -0.605,-8.243 -1.236,-8.617 -1.867,-8.991 -2.567,-9.286 -3.338,-9.499 -4.108,-9.713 -4.91,-9.82 -5.745,-9.82"
             style="fill:#71675e;fill-opacity:1;fill-rule:nonzero;stroke:none"
             id="path977" />
        </g>
        <g
           id="g979"
           transform="translate(623.2255,395.9877)">
          <path
             d="m 0,0 c 0.513,0 1.043,0.096 1.588,0.289 0.546,0.192 1.06,0.459 1.541,0.802 0.481,0.342 0.899,0.743 1.252,1.204 0.353,0.459 0.582,0.946 0.689,1.46 v 4.814 c -0.192,0.534 -0.481,1.043 -0.866,1.524 -0.385,0.481 -0.818,0.899 -1.3,1.252 -0.481,0.353 -0.995,0.631 -1.54,0.834 -0.546,0.203 -1.086,0.305 -1.621,0.305 -0.834,0 -1.588,-0.177 -2.262,-0.529 C -3.193,11.601 -3.771,11.131 -4.252,10.542 -4.734,9.954 -5.103,9.28 -5.36,8.52 -5.616,7.761 -5.745,6.985 -5.745,6.194 c 0,-0.835 0.15,-1.632 0.45,-2.391 0.299,-0.76 0.706,-1.418 1.219,-1.974 0.514,-0.557 1.118,-1 1.813,-1.332 C -1.567,0.165 -0.813,0 0,0 m -0.674,-2.439 c -1.155,0 -2.226,0.236 -3.209,0.706 -0.985,0.47 -1.83,1.102 -2.536,1.893 -0.706,0.792 -1.257,1.712 -1.652,2.76 -0.396,1.048 -0.594,2.15 -0.594,3.306 0,1.176 0.187,2.294 0.562,3.354 0.374,1.059 0.898,1.984 1.572,2.776 0.674,0.791 1.476,1.417 2.407,1.877 0.931,0.46 1.952,0.69 3.065,0.69 1.348,0 2.551,-0.353 3.61,-1.059 C 3.61,13.158 4.45,12.302 5.07,11.296 V 21.309 H 7.895 V 1.348 c 0,-0.664 0.299,-1.006 0.898,-1.027 V -2.118 C 8.494,-2.161 8.253,-2.193 8.071,-2.215 7.889,-2.236 7.713,-2.246 7.542,-2.246 c -0.557,0 -1.043,0.187 -1.461,0.561 -0.417,0.374 -0.625,0.807 -0.625,1.3 V 1.027 C 4.792,-0.064 3.91,-0.915 2.808,-1.524 1.706,-2.134 0.546,-2.439 -0.674,-2.439"
             style="fill:#71675e;fill-opacity:1;fill-rule:nonzero;stroke:none"
             id="path981" />
        </g>
        <path
           d="m 633.616,396.061 h 1.448 v -2.191 h -1.448 z"
           style="fill:#71675e;fill-opacity:1;fill-rule:nonzero;stroke:none"
           id="path983" />
        <g
           id="g985"
           transform="translate(639.402,395.3576)">
          <path
             d="M 0,0 C 0.125,0 0.221,0.041 0.288,0.125 0.356,0.208 0.39,0.315 0.39,0.447 0.39,0.578 0.351,0.685 0.273,0.766 0.195,0.848 0.099,0.888 -0.015,0.888 H -0.644 V 0 Z M -0.982,1.195 H 0.016 C 0.12,1.195 0.215,1.173 0.301,1.13 0.388,1.087 0.463,1.03 0.525,0.959 0.587,0.888 0.635,0.807 0.671,0.717 0.705,0.627 0.722,0.537 0.722,0.447 0.722,0.284 0.676,0.138 0.585,0.008 0.493,-0.122 0.372,-0.206 0.224,-0.244 L 0.79,-1.138 H 0.411 l -0.531,0.842 h -0.524 v -0.842 h -0.338 z m 0.805,-2.852 c 0.243,0 0.468,0.04 0.676,0.122 0.208,0.081 0.389,0.196 0.543,0.345 0.154,0.149 0.275,0.326 0.364,0.533 0.088,0.206 0.132,0.434 0.132,0.683 0,0.239 -0.043,0.46 -0.13,0.665 C 1.322,0.895 1.202,1.073 1.05,1.224 0.897,1.374 0.716,1.492 0.507,1.577 0.297,1.662 0.069,1.704 -0.177,1.704 -0.422,1.704 -0.65,1.662 -0.86,1.577 -1.069,1.492 -1.249,1.374 -1.4,1.224 -1.551,1.073 -1.669,0.895 -1.753,0.691 -1.838,0.486 -1.881,0.267 -1.881,0.031 c 0,-0.239 0.043,-0.462 0.128,-0.668 0.084,-0.206 0.202,-0.384 0.353,-0.535 0.151,-0.15 0.331,-0.269 0.54,-0.356 0.21,-0.086 0.438,-0.129 0.683,-0.129 m 0,-0.193 c -0.277,0 -0.532,0.048 -0.766,0.143 -0.234,0.095 -0.436,0.227 -0.608,0.395 -0.171,0.168 -0.306,0.366 -0.403,0.595 -0.097,0.229 -0.145,0.478 -0.145,0.748 0,0.267 0.048,0.514 0.145,0.743 0.097,0.229 0.232,0.426 0.403,0.593 0.172,0.166 0.374,0.297 0.608,0.392 0.234,0.095 0.489,0.143 0.766,0.143 0.278,0 0.534,-0.048 0.77,-0.143 C 0.828,1.664 1.032,1.533 1.206,1.367 1.379,1.2 1.514,1.003 1.611,0.774 1.708,0.545 1.756,0.298 1.756,0.031 1.756,-0.239 1.708,-0.488 1.611,-0.717 1.514,-0.946 1.379,-1.144 1.206,-1.312 1.032,-1.48 0.828,-1.612 0.593,-1.707 0.357,-1.802 0.101,-1.85 -0.177,-1.85"
             style="fill:#71675e;fill-opacity:1;fill-rule:nonzero;stroke:none"
             id="path987" />
        </g>
      </g>
    </g>
    <g
       id="g989"
       transform="matrix(0.03453557,0,0,-0.03453557,-72.891277,-22.467283)">
      <path
         d="M 0,0 V 70.394"
         style="fill:none;stroke:#71675e;stroke-width:0.466;stroke-linecap:butt;stroke-linejoin:miter;stroke-miterlimit:10;stroke-dasharray:none;stroke-opacity:1"
         id="path991" />
    </g>
    <g
       id="g993"
       transform="matrix(0.03453557,0,0,-0.03453557,-86.702243,-9.7806292)">
      <g
         id="g995"
         clip-path="url(#clipPath999-5)">
        <g
           id="g1001"
           transform="translate(157.7842,407.6314)">
          <path
             d="m 0,0 c -5.565,4.991 -6.942,11.532 -6.942,16.983 0,3.844 1.319,10.556 6.425,15.662 3.443,3.443 8.664,6.14 17.499,6.14 2.295,0 5.508,-0.172 8.32,-0.689 2.18,-0.402 3.959,-0.574 6.081,-0.861 0.402,-0.057 0.517,-0.286 0.517,-0.631 0,-0.459 -0.173,-1.147 -0.287,-3.213 -0.115,-1.893 -0.115,-5.048 -0.172,-5.909 -0.058,-0.86 -0.172,-1.205 -0.517,-1.205 -0.401,0 -0.459,0.402 -0.459,1.205 0,2.237 -0.918,4.59 -2.41,5.852 -2.007,1.721 -6.425,3.27 -11.474,3.27 -7.631,0 -11.188,-2.237 -13.196,-4.188 -4.188,-4.016 -5.164,-9.122 -5.164,-14.974 0,-10.959 8.434,-20.999 20.712,-20.999 4.303,0 7.688,0.516 9.983,2.869 1.205,1.262 1.951,3.786 2.123,4.819 0.115,0.631 0.229,0.86 0.574,0.86 0.287,0 0.401,-0.401 0.401,-0.86 0,-0.402 -0.688,-5.393 -1.262,-7.344 -0.344,-1.09 -0.459,-1.205 -1.491,-1.664 C 26.965,-5.795 22.605,-6.196 18.933,-6.196 10.327,-6.196 4.532,-4.074 0,0"
             style="fill:#71675e;fill-opacity:1;fill-rule:nonzero;stroke:none"
             id="path1003" />
        </g>
        <g
           id="g1005"
           transform="translate(208.1013,418.7619)">
          <path
             d="m 0,0 c 0,-8.434 0.229,-12.106 1.262,-13.139 0.918,-0.917 2.41,-1.319 6.885,-1.319 3.041,0 5.565,0.057 6.942,1.721 0.746,0.918 1.32,2.352 1.492,3.442 0.057,0.459 0.172,0.746 0.516,0.746 0.287,0 0.345,-0.229 0.345,-0.86 0,-0.631 -0.402,-4.074 -0.861,-5.738 -0.402,-1.319 -0.574,-1.549 -3.615,-1.549 -4.934,0 -9.81,0.344 -15.376,0.344 -1.778,0 -3.5,-0.172 -5.622,-0.172 -0.631,0 -0.919,0.115 -0.919,0.459 0,0.173 0.115,0.345 0.46,0.345 0.516,0 1.204,0.114 1.721,0.229 1.147,0.229 1.434,1.492 1.664,3.156 0.287,2.409 0.287,6.942 0.287,12.45 v 10.098 c 0,8.95 0,10.556 -0.115,12.392 -0.115,1.951 -0.574,2.869 -2.467,3.27 -0.459,0.115 -1.435,0.173 -1.951,0.173 -0.229,0 -0.459,0.114 -0.459,0.344 0,0.344 0.287,0.459 0.918,0.459 2.582,0 6.196,-0.172 6.483,-0.172 0.287,0 4.475,0.172 6.197,0.172 0.631,0 0.918,-0.115 0.918,-0.459 0,-0.23 -0.23,-0.344 -0.459,-0.344 -0.402,0 -1.205,-0.058 -1.894,-0.173 C 0.689,25.589 0.229,24.613 0.115,22.605 0,20.769 0,19.163 0,10.213 Z"
             style="fill:#71675e;fill-opacity:1;fill-rule:nonzero;stroke:none"
             id="path1007" />
        </g>
        <g
           id="g1009"
           transform="translate(272.4714,403.0418)">
          <path
             d="m 0,0 c -0.458,0 -1.375,0.058 -2.237,0.344 -1.206,0.345 -2.867,1.262 -4.934,6.369 -3.498,8.719 -12.506,32.414 -13.368,34.595 -0.689,1.779 -0.916,2.065 -1.261,2.065 -0.345,0 -0.576,-0.342 -1.265,-2.237 L -36.088,5.507 C -37.121,2.64 -38.266,0.458 -40.905,0.114 -41.367,0.058 -41.881,0 -42.284,0 c -0.517,0 -0.803,-0.114 -0.803,-0.345 0,-0.344 0.345,-0.458 1.089,-0.458 2.698,0 5.855,0.172 6.486,0.172 0.631,0 2.926,-0.172 4.301,-0.172 0.517,0 1.033,0.114 1.033,0.458 0,0.231 -0.172,0.345 -0.744,0.345 h -0.517 c -0.975,0 -2.067,0.517 -2.067,1.664 0,1.031 0.289,2.409 0.803,3.843 l 3.442,10.155 c 0.004,0.007 0.007,0.014 0.011,0.021 l 1.96,5.786 4.111,12.609 c 0.287,0.862 0.576,0.862 0.862,0 l 4.694,-13.339 2.06,-5.68 5.066,-13.395 c 0.341,-0.92 0,-1.433 -0.344,-1.55 -0.231,-0.056 -0.404,-0.173 -0.404,-0.4 0,-0.345 0.631,-0.345 1.723,-0.403 3.957,-0.114 8.147,-0.114 9.005,-0.114 0.634,0 1.148,0.114 1.148,0.458 C 0.631,-0.059 0.344,0 0,0"
             style="fill:#71675e;fill-opacity:1;fill-rule:nonzero;stroke:none"
             id="path1011" />
        </g>
        <g
           id="g1013"
           transform="translate(279.3569,402.9843)">
          <path
             d="m 0,0 c -0.803,0.401 -0.861,0.631 -0.861,2.18 0,2.869 0.23,5.164 0.287,6.082 0.058,0.631 0.173,0.918 0.459,0.918 0.344,0 0.402,-0.172 0.402,-0.631 0,-0.517 0,-1.32 0.172,-2.123 C 1.32,2.18 5.106,0.574 8.951,0.574 c 5.507,0 8.204,3.958 8.204,7.63 0,3.959 -1.664,6.254 -6.598,10.328 l -2.582,2.122 c -6.082,4.992 -7.458,8.549 -7.458,12.45 0,6.139 4.589,10.328 11.876,10.328 2.237,0 3.901,-0.23 5.336,-0.574 1.09,-0.23 1.548,-0.287 2.008,-0.287 0.459,0 0.574,-0.114 0.574,-0.401 0,-0.287 -0.23,-2.181 -0.23,-6.082 0,-0.918 -0.115,-1.32 -0.402,-1.32 -0.344,0 -0.402,0.287 -0.459,0.746 -0.057,0.689 -0.401,2.238 -0.746,2.869 -0.344,0.631 -1.893,3.041 -7.171,3.041 -3.959,0 -7.057,-2.468 -7.057,-6.656 0,-3.27 1.492,-5.335 6.999,-9.639 l 1.607,-1.262 c 6.77,-5.335 8.376,-8.893 8.376,-13.483 0,-2.352 -0.917,-6.712 -4.876,-9.523 -2.468,-1.722 -5.566,-2.41 -8.664,-2.41 C 4.991,-1.549 2.352,-1.148 0,0"
             style="fill:#71675e;fill-opacity:1;fill-rule:nonzero;stroke:none"
             id="path1015" />
        </g>
        <g
           id="g1017"
           transform="translate(312.2323,402.9843)">
          <path
             d="m 0,0 c -0.803,0.401 -0.861,0.631 -0.861,2.18 0,2.869 0.23,5.164 0.287,6.082 0.058,0.631 0.172,0.918 0.459,0.918 0.344,0 0.402,-0.172 0.402,-0.631 0,-0.517 0,-1.32 0.172,-2.123 C 1.32,2.18 5.106,0.574 8.951,0.574 c 5.507,0 8.204,3.958 8.204,7.63 0,3.959 -1.664,6.254 -6.598,10.328 l -2.582,2.122 c -6.082,4.992 -7.458,8.549 -7.458,12.45 0,6.139 4.589,10.328 11.876,10.328 2.237,0 3.901,-0.23 5.336,-0.574 1.09,-0.23 1.548,-0.287 2.008,-0.287 0.459,0 0.573,-0.114 0.573,-0.401 0,-0.287 -0.229,-2.181 -0.229,-6.082 0,-0.918 -0.115,-1.32 -0.402,-1.32 -0.344,0 -0.402,0.287 -0.459,0.746 -0.057,0.689 -0.401,2.238 -0.746,2.869 -0.344,0.631 -1.893,3.041 -7.171,3.041 -3.959,0 -7.057,-2.468 -7.057,-6.656 0,-3.27 1.492,-5.335 6.999,-9.639 l 1.607,-1.262 c 6.77,-5.335 8.376,-8.893 8.376,-13.483 0,-2.352 -0.918,-6.712 -4.876,-9.523 -2.468,-1.722 -5.566,-2.41 -8.664,-2.41 C 4.991,-1.549 2.352,-1.148 0,0"
             style="fill:#71675e;fill-opacity:1;fill-rule:nonzero;stroke:none"
             id="path1019" />
        </g>
        <g
           id="g1021"
           transform="translate(356.1223,417.0981)">
          <path
             d="m 0,0 c 0,3.098 -0.574,4.361 -1.32,6.024 -0.401,0.918 -8.089,13.54 -10.097,16.524 -1.435,2.123 -2.869,3.557 -3.902,4.245 -0.861,0.574 -1.951,0.919 -2.467,0.919 -0.287,0 -0.574,0.114 -0.574,0.401 0,0.23 0.23,0.402 0.746,0.402 1.09,0 5.393,-0.172 5.68,-0.172 0.402,0 2.582,0.172 4.82,0.172 0.631,0 0.745,-0.172 0.745,-0.402 0,-0.229 -0.344,-0.287 -0.86,-0.516 -0.459,-0.23 -0.746,-0.574 -0.746,-1.033 0,-0.689 0.287,-1.377 0.746,-2.237 C -6.311,22.663 2.295,7.86 3.328,6.196 c 1.09,2.41 8.376,14.975 9.524,16.868 0.746,1.205 0.975,2.18 0.975,2.926 0,0.803 -0.229,1.435 -0.918,1.607 -0.516,0.172 -0.861,0.287 -0.861,0.574 0,0.229 0.345,0.344 0.918,0.344 1.492,0 3.328,-0.172 3.787,-0.172 0.344,0 4.475,0.172 5.565,0.172 0.402,0 0.746,-0.115 0.746,-0.345 0,-0.286 -0.287,-0.458 -0.746,-0.458 -0.631,0 -1.721,-0.23 -2.639,-0.804 C 18.532,26.22 17.9,25.531 16.638,23.982 14.745,21.687 6.713,8.204 5.68,5.737 4.819,3.672 4.819,1.893 4.819,0 v -4.934 c 0,-0.918 0,-3.328 0.172,-5.737 0.115,-1.664 0.632,-2.927 2.353,-3.156 0.803,-0.115 2.065,-0.229 2.582,-0.229 0.344,0 0.459,-0.173 0.459,-0.345 0,-0.287 -0.287,-0.459 -0.918,-0.459 -3.156,0 -6.77,0.172 -7.057,0.172 -0.287,0 -3.902,-0.172 -5.623,-0.172 -0.631,0 -0.918,0.115 -0.918,0.459 0,0.172 0.115,0.345 0.459,0.345 0.516,0 1.205,0.114 1.721,0.229 1.148,0.229 1.664,1.492 1.779,3.156 C 0,-8.262 0,-5.852 0,-4.934 Z"
             style="fill:#71675e;fill-opacity:1;fill-rule:nonzero;stroke:none"
             id="path1023" />
        </g>
        <g
           id="g1025"
           transform="translate(158.134,364.901)">
          <path
             d="m 0,0 c -3.823,3.429 -4.769,7.921 -4.769,11.665 0,2.641 0.907,7.252 4.414,10.76 2.365,2.364 5.951,4.216 12.02,4.216 1.577,0 3.784,-0.118 5.715,-0.473 1.498,-0.275 2.719,-0.394 4.177,-0.591 0.276,-0.039 0.355,-0.197 0.355,-0.433 0,-0.315 -0.118,-0.788 -0.197,-2.207 -0.079,-1.301 -0.079,-3.468 -0.118,-4.059 -0.04,-0.592 -0.118,-0.828 -0.355,-0.828 -0.276,0 -0.315,0.276 -0.315,0.828 0,1.536 -0.631,3.152 -1.655,4.02 -1.38,1.182 -4.414,2.246 -7.882,2.246 -5.242,0 -7.685,-1.537 -9.065,-2.877 -2.877,-2.759 -3.547,-6.266 -3.547,-10.286 0,-7.528 5.794,-14.424 14.227,-14.424 2.956,0 5.281,0.354 6.858,1.97 0.827,0.867 1.34,2.601 1.458,3.311 0.079,0.433 0.158,0.591 0.394,0.591 0.197,0 0.276,-0.276 0.276,-0.591 0,-0.276 -0.473,-3.705 -0.867,-5.045 C 20.887,-2.956 20.809,-3.035 20.099,-3.35 18.523,-3.98 15.528,-4.256 13.005,-4.256 7.094,-4.256 3.113,-2.798 0,0"
             style="fill:#721f34;fill-opacity:1;fill-rule:nonzero;stroke:none"
             id="path1027" />
        </g>
        <g
           id="g1029"
           transform="translate(198.8063,372.5466)">
          <path
             d="m 0,0 c 0,-5.793 0.158,-8.316 0.867,-9.025 0.631,-0.631 1.655,-0.906 4.729,-0.906 2.089,0 3.823,0.039 4.769,1.182 0.512,0.63 0.906,1.616 1.025,2.364 0.039,0.316 0.118,0.513 0.354,0.513 0.197,0 0.237,-0.158 0.237,-0.591 0,-0.434 -0.276,-2.798 -0.591,-3.941 -0.276,-0.907 -0.395,-1.065 -2.483,-1.065 -3.39,0 -6.739,0.237 -10.562,0.237 -1.222,0 -2.404,-0.118 -3.863,-0.118 -0.433,0 -0.63,0.079 -0.63,0.315 0,0.118 0.079,0.236 0.315,0.236 0.355,0 0.828,0.079 1.182,0.158 0.789,0.158 0.986,1.025 1.143,2.168 0.198,1.655 0.198,4.768 0.198,8.552 v 6.936 c 0,6.148 0,7.251 -0.079,8.513 -0.079,1.34 -0.394,1.97 -1.695,2.246 -0.315,0.079 -0.985,0.118 -1.34,0.118 -0.158,0 -0.315,0.079 -0.315,0.237 0,0.236 0.197,0.315 0.63,0.315 1.774,0 4.257,-0.118 4.454,-0.118 0.197,0 3.074,0.118 4.256,0.118 0.434,0 0.631,-0.079 0.631,-0.315 0,-0.158 -0.158,-0.237 -0.316,-0.237 -0.276,0 -0.827,-0.039 -1.3,-0.118 C 0.473,17.577 0.158,16.907 0.079,15.528 0,14.266 0,13.163 0,7.015 Z"
             style="fill:#721f34;fill-opacity:1;fill-rule:nonzero;stroke:none"
             id="path1031" />
        </g>
        <g
           id="g1033"
           transform="translate(247.9913,375.66)">
          <path
             d="m 0,0 c 0,9.458 -5.754,14.542 -11.981,14.542 -6.581,0 -11.508,-4.335 -11.508,-12.966 0,-9.182 5.518,-15.094 12.612,-15.094 C -7.331,-13.518 0,-11.469 0,0 m -27.233,0.473 c 0,6.384 4.651,15.409 15.528,15.409 8.867,0 15.488,-5.596 15.488,-14.779 0,-8.827 -6.227,-16.118 -15.724,-16.118 -10.799,0 -15.292,8.394 -15.292,15.488"
             style="fill:#721f34;fill-opacity:1;fill-rule:nonzero;stroke:none"
             id="path1035" />
        </g>
        <g
           id="g1037"
           transform="translate(265.49,361.7088)">
          <path
             d="m 0,0 c -0.552,0.276 -0.591,0.433 -0.591,1.497 0,1.971 0.157,3.547 0.197,4.178 0.039,0.433 0.118,0.631 0.315,0.631 0.237,0 0.276,-0.119 0.276,-0.434 0,-0.355 0,-0.906 0.118,-1.458 0.591,-2.917 3.193,-4.02 5.833,-4.02 3.783,0 5.636,2.719 5.636,5.242 0,2.719 -1.143,4.295 -4.533,7.093 L 5.478,14.188 C 1.3,17.616 0.355,20.06 0.355,22.74 c 0,4.217 3.153,7.094 8.158,7.094 1.536,0 2.679,-0.158 3.665,-0.394 0.749,-0.158 1.064,-0.198 1.379,-0.198 0.315,0 0.394,-0.078 0.394,-0.275 0,-0.197 -0.157,-1.498 -0.157,-4.178 0,-0.63 -0.079,-0.906 -0.276,-0.906 -0.237,0 -0.276,0.197 -0.316,0.512 -0.039,0.473 -0.275,1.537 -0.512,1.97 -0.236,0.434 -1.301,2.089 -4.926,2.089 -2.719,0 -4.848,-1.695 -4.848,-4.571 0,-2.247 1.025,-3.666 4.808,-6.621 l 1.104,-0.867 c 4.65,-3.666 5.754,-6.109 5.754,-9.262 0,-1.616 -0.631,-4.611 -3.35,-6.542 C 9.537,-0.591 7.409,-1.064 5.281,-1.064 3.429,-1.064 1.616,-0.788 0,0"
             style="fill:#721f34;fill-opacity:1;fill-rule:nonzero;stroke:none"
             id="path1039" />
        </g>
        <g
           id="g1041"
           transform="translate(296.5065,379.5616)">
          <path
             d="m 0,0 c 0,6.148 0,7.251 -0.079,8.513 -0.079,1.34 -0.394,1.97 -1.694,2.246 -0.276,0.079 -0.789,0.079 -1.143,0.118 -0.276,0.04 -0.513,0.079 -0.513,0.237 0,0.236 0.197,0.315 0.631,0.315 0.906,0 1.97,0 4.453,-0.118 0.276,0 8.119,0 9.025,0.039 0.867,0.04 1.577,0.118 1.813,0.237 0.236,0.118 0.315,0.157 0.434,0.157 0.118,0 0.157,-0.157 0.157,-0.354 0,-0.276 -0.236,-0.749 -0.315,-1.853 C 12.729,8.946 12.69,8.197 12.611,7.173 12.572,6.779 12.454,6.503 12.296,6.503 12.059,6.503 11.981,6.7 11.981,7.015 11.981,7.527 11.902,8 11.784,8.316 11.508,9.222 10.68,9.616 8.946,9.774 8.276,9.853 3.98,9.892 3.547,9.892 3.389,9.892 3.31,9.774 3.31,9.498 V -1.379 c 0,-0.276 0.04,-0.394 0.237,-0.394 0.512,0 5.36,0 6.266,0.078 1.064,0.079 1.576,0.197 1.971,0.67 0.197,0.237 0.315,0.394 0.473,0.394 0.118,0 0.197,-0.078 0.197,-0.315 0,-0.236 -0.197,-0.906 -0.316,-2.207 -0.118,-1.222 -0.118,-2.128 -0.157,-2.68 -0.04,-0.394 -0.118,-0.591 -0.276,-0.591 -0.237,0 -0.276,0.315 -0.276,0.631 0,0.354 -0.04,0.748 -0.158,1.103 -0.157,0.591 -0.63,1.143 -2.049,1.301 -1.064,0.118 -4.966,0.197 -5.636,0.197 -0.197,0 -0.276,-0.118 -0.276,-0.276 v -3.468 c 0,-1.34 -0.039,-5.912 0,-6.739 0.079,-1.616 0.316,-2.483 1.301,-2.877 0.67,-0.276 1.734,-0.355 3.271,-0.355 1.182,0 2.483,0.039 3.547,0.355 1.261,0.394 1.695,1.221 2.01,2.916 0.079,0.433 0.158,0.591 0.355,0.591 0.236,0 0.236,-0.315 0.236,-0.591 0,-0.315 -0.315,-2.995 -0.512,-3.823 -0.276,-1.025 -0.591,-1.025 -2.129,-1.025 -2.916,0 -4.217,0.079 -5.754,0.119 -1.576,0.039 -3.389,0.118 -4.926,0.118 -0.946,0 -1.891,-0.158 -2.916,-0.118 -0.434,0 -0.631,0.079 -0.631,0.315 0,0.118 0.197,0.197 0.434,0.236 0.394,0.04 0.631,0.04 0.906,0.119 0.828,0.197 1.34,0.748 1.419,3.704 C -0.04,-12.454 0,-10.444 0,-6.936 Z"
             style="fill:#721f34;fill-opacity:1;fill-rule:nonzero;stroke:none"
             id="path1043" />
        </g>
        <g
           id="g1045"
           transform="translate(335.6409,372.6254)">
          <path
             d="m 0,0 c 0,-3.783 0,-6.897 0.197,-8.552 0.118,-1.143 0.355,-2.01 1.537,-2.168 0.552,-0.079 1.419,-0.157 1.774,-0.157 0.236,0 0.315,-0.119 0.315,-0.237 0,-0.197 -0.197,-0.315 -0.631,-0.315 -2.168,0 -4.65,0.118 -4.847,0.118 -0.197,0 -2.68,-0.118 -3.862,-0.118 -0.434,0 -0.631,0.079 -0.631,0.315 0,0.118 0.079,0.237 0.315,0.237 0.355,0 0.828,0.078 1.182,0.157 0.789,0.158 0.986,1.025 1.143,2.168 0.197,1.655 0.197,4.769 0.197,8.552 v 16.671 c -1.931,-0.04 -3.901,-0.04 -5.832,-0.079 -2.444,-0.04 -3.39,-0.315 -4.02,-1.261 -0.434,-0.67 -0.552,-0.946 -0.67,-1.222 -0.118,-0.315 -0.237,-0.394 -0.394,-0.394 -0.119,0 -0.197,0.118 -0.197,0.355 0,0.394 0.788,3.783 0.867,4.098 0.078,0.237 0.236,0.749 0.394,0.749 0.276,0 0.67,-0.394 1.734,-0.473 1.143,-0.118 2.64,-0.197 3.113,-0.197 H 6.463 c 1.261,0 2.168,0.079 2.798,0.197 0.592,0.079 0.946,0.197 1.104,0.197 0.197,0 0.197,-0.236 0.197,-0.473 0,-1.182 -0.118,-3.902 -0.118,-4.335 0,-0.355 -0.118,-0.512 -0.276,-0.512 -0.197,0 -0.276,0.118 -0.315,0.67 0,0.157 -0.04,0.275 -0.04,0.433 C 9.695,15.607 8.749,16.513 4.965,16.592 3.31,16.631 1.655,16.631 0,16.671 Z"
             style="fill:#721f34;fill-opacity:1;fill-rule:nonzero;stroke:none"
             id="path1047" />
        </g>
        <g
           id="g1049"
           transform="translate(358.3029,361.7088)">
          <path
             d="m 0,0 c -0.552,0.276 -0.591,0.433 -0.591,1.497 0,1.971 0.157,3.547 0.197,4.178 0.039,0.433 0.118,0.631 0.315,0.631 0.237,0 0.276,-0.119 0.276,-0.434 0,-0.355 0,-0.906 0.118,-1.458 0.591,-2.917 3.193,-4.02 5.833,-4.02 3.783,0 5.636,2.719 5.636,5.242 0,2.719 -1.143,4.295 -4.533,7.093 L 5.478,14.188 C 1.3,17.616 0.354,20.06 0.354,22.74 c 0,4.217 3.154,7.094 8.159,7.094 1.536,0 2.679,-0.158 3.665,-0.394 0.749,-0.158 1.064,-0.198 1.379,-0.198 0.315,0 0.394,-0.078 0.394,-0.275 0,-0.197 -0.157,-1.498 -0.157,-4.178 0,-0.63 -0.079,-0.906 -0.276,-0.906 -0.237,0 -0.276,0.197 -0.316,0.512 -0.039,0.473 -0.275,1.537 -0.512,1.97 -0.236,0.434 -1.301,2.089 -4.926,2.089 -2.72,0 -4.848,-1.695 -4.848,-4.571 0,-2.247 1.025,-3.666 4.808,-6.621 l 1.104,-0.867 c 4.65,-3.666 5.754,-6.109 5.754,-9.262 0,-1.616 -0.631,-4.611 -3.35,-6.542 C 9.537,-0.591 7.409,-1.064 5.281,-1.064 3.429,-1.064 1.616,-0.788 0,0"
             style="fill:#721f34;fill-opacity:1;fill-rule:nonzero;stroke:none"
             id="path1051" />
        </g>
        <g
           id="g1053"
           transform="translate(377.0151,363.0035)">
          <path
             d="m 0,0 c 0.052,-0.026 0.182,-0.052 0.312,-0.052 0.13,0 0.209,0.026 0.287,0.078 0.104,0.078 0.156,0.208 0.156,0.365 0,0.338 -0.182,0.599 -0.547,0.599 -0.026,0 -0.156,0 -0.208,-0.053 z m -0.443,0.755 c 0,0.26 -0.078,0.287 -0.286,0.313 -0.078,0 -0.104,0.052 -0.104,0.078 0,0.052 0.078,0.052 0.13,0.052 0.182,0 0.365,-0.026 0.442,-0.026 0.235,0 0.339,0.026 0.521,0.026 0.391,0 0.964,-0.104 0.964,-0.677 0,-0.235 -0.156,-0.495 -0.443,-0.625 l 0.313,-0.443 c 0.286,-0.416 0.495,-0.495 0.546,-0.521 0.079,-0.026 0.105,-0.026 0.105,-0.078 0,-0.026 -0.026,-0.052 -0.156,-0.052 -0.287,0 -0.547,-0.026 -0.886,0.443 L 0.364,-0.26 H 0 v -0.391 c 0,-0.365 0.026,-0.391 0.286,-0.417 0.078,0 0.131,-0.026 0.131,-0.078 0,-0.026 -0.026,-0.052 -0.131,-0.052 -0.156,0 -0.364,0.026 -0.494,0.026 -0.078,0 -0.339,-0.026 -0.521,-0.026 -0.026,0 -0.104,0 -0.104,0.052 0,0.052 0.078,0.078 0.13,0.078 0.208,0.026 0.26,0.052 0.26,0.339 z m 2.735,-0.833 c 0,1.146 -0.834,1.953 -1.928,1.953 -1.093,0 -1.926,-0.807 -1.926,-1.953 0,-1.12 0.833,-1.979 1.953,-1.979 1.067,0 1.901,0.755 1.901,1.979 m -4.219,-0.026 c 0,1.328 0.99,2.292 2.291,2.292 1.303,0 2.292,-0.964 2.292,-2.292 0,-1.276 -0.989,-2.266 -2.292,-2.266 -1.301,0 -2.291,0.99 -2.291,2.266"
             style="fill:#721f34;fill-opacity:1;fill-rule:nonzero;stroke:none"
             id="path1055" />
        </g>
        <g
           id="g1057"
           transform="translate(253.724,410.3359)">
          <path
             d="m 0,0 c 1.763,-0.538 3.943,1.833 3.496,3.226 -0.311,0.969 -8.313,8.812 -18.494,9.129 -11.605,0.361 -17.409,-10.952 -16.304,-11.12 1.85,-0.28 2.334,7.496 9.798,8.441 C -12.899,10.765 -3.216,0.981 0,0"
             style="fill:#721f34;fill-opacity:1;fill-rule:nonzero;stroke:none"
             id="path1059" />
        </g>
      </g>
    </g>
  </g>
</svg>
